inDegrees=no
num_controls=7
num_derivatives=13
num_iterations=99
num_multipliers=7
num_parameters=0
num_slacks=7
num_states=26
objective=5.574567
objective_accelerations=0.257506
objective_balance=0.028436
objective_effort=0.365855
objective_height=4.878348
objective_ligament=0.044422
solver_duration=853.144516
status=Solve_Succeeded
success=true
DataType=double
version=3
OpenSimVersion=4.4-2022-07-23-0e9fedc
endheader
time	/jointset/ground_pelvis/pelvis_tilt/value	/jointset/ground_pelvis/pelvis_tx/value	/jointset/ground_pelvis/pelvis_ty/value	/jointset/hip_r/hip_flexion_r/value	/jointset/hip_r/hip_adduction_r/value	/jointset/hip_r/hip_rotation_r/value	/jointset/back/lumbar_extension/value	/jointset/patellofemoral_r/patellar_flexion_r/value	/jointset/knee_r/knee_flexion_r/value	/jointset/knee_r/knee_adduction_r/value	/jointset/knee_r/knee_rotation_r/value	/jointset/ankle_r/ankle_angle_r/value	/jointset/subtalar_r/subtalar_angle_r/value	/jointset/ground_pelvis/pelvis_tilt/speed	/jointset/ground_pelvis/pelvis_tx/speed	/jointset/ground_pelvis/pelvis_ty/speed	/jointset/hip_r/hip_flexion_r/speed	/jointset/hip_r/hip_adduction_r/speed	/jointset/hip_r/hip_rotation_r/speed	/jointset/back/lumbar_extension/speed	/jointset/patellofemoral_r/patellar_flexion_r/speed	/jointset/knee_r/knee_flexion_r/speed	/jointset/knee_r/knee_adduction_r/speed	/jointset/knee_r/knee_rotation_r/speed	/jointset/ankle_r/ankle_angle_r/speed	/jointset/subtalar_r/subtalar_angle_r/speed	/forceset/tau_hip_flexion_r	/forceset/tau_hip_adduction_r	/forceset/tau_hip_rotation_r	/forceset/tau_knee_flexion_r	/forceset/tau_ankle_angle_r	/forceset/tau_subtalar_angle_r	/forceset/tau_lumbar_extension	lambda_cid13_p0	lambda_cid14_p0	lambda_cid14_p1	lambda_cid14_p2	lambda_cid14_p3	lambda_cid14_p4	lambda_cid14_p5	/jointset/ground_pelvis/pelvis_tilt/accel	/jointset/ground_pelvis/pelvis_tx/accel	/jointset/ground_pelvis/pelvis_ty/accel	/jointset/hip_r/hip_flexion_r/accel	/jointset/hip_r/hip_adduction_r/accel	/jointset/hip_r/hip_rotation_r/accel	/jointset/back/lumbar_extension/accel	/jointset/patellofemoral_r/patellar_flexion_r/accel	/jointset/knee_r/knee_flexion_r/accel	/jointset/knee_r/knee_adduction_r/accel	/jointset/knee_r/knee_rotation_r/accel	/jointset/ankle_r/ankle_angle_r/accel	/jointset/subtalar_r/subtalar_angle_r/accel	gamma_cid13_p0	gamma_cid14_p0	gamma_cid14_p1	gamma_cid14_p2	gamma_cid14_p3	gamma_cid14_p4	gamma_cid14_p5
1	-0.05082493801845132	0.08295311804977028	0.8165728941674516	0.7640735433511303	-0.2345117135191765	-0.1038794490490422	-0.4361033331080807	0.9615131482740081	0.9615131482740015	-0.007279540598382697	0.1745242375899764	0.4363127566490157	0.1076394727886334	-0.00234171459532914	0.007731100842330804	0.01185896556161468	-0.03888305813251548	0.002716201135307988	-0.01217021967072489	0.01970054570112046	-0.05051038187898173	-0.05051038187898169	-0.0005790633683787435	-0.0001065124040663124	-0.01040170763292944	0.0008147752090881536	-0.111216676577867	0.02337994574781816	0.01451053747550633	-0.4107001331973055	-0.07257800924753709	0.003587465527500242	0.1871950661185228	-14.71216904205426	-69.35476256901363	-9.41501051932069	0.6240205642710774	20.67718276396474	-752.6079357259675	57.35202779917942	0.3169067311826291	-0.02921549549639131	0.8790250531062926	-2.595632092613407	0.1056320072077807	-0.4163450829285149	0.867542665325727	-3.779331258523605	-3.779331258523658	0.567699527993804	-0.006998961771581267	-1.688515619595306	-0.4777069985322585	1.148886376294024e-09	-1.714922267097368e-09	-4.755959821182954e-09	8.127986101983889e-09	4.696440998010025e-09	-4.602330413918553e-09	-6.14969075816635e-09
1.01	-0.05083326524334027	0.08302905369243992	0.8167352889534911	0.7635558063194465	-0.2344794724696148	-0.1040217667196777	-0.4358616006439157	0.9608193684243894	0.9608193684244472	-0.007256469012928679	0.1745230919192514	0.4361244106508692	0.1076234218329813	0.0006507696820244357	0.007465657736868405	0.02061710178407244	-0.06465272863050023	0.003730716088519397	-0.0162947779098026	0.02872601520138096	-0.08825293139234879	-0.08825293139235026	0.005197229750076556	-0.0001216254864916272	-0.02726138338922376	-0.004023843697961629	-0.1115148199100073	0.02338948763090539	0.01449786429448586	-0.410159552402648	-0.07295147558702542	0.003636584392542821	0.1874949191335066	-14.75821541716432	-69.4692694275322	-9.397948081592251	0.6032763714289456	20.64566689287458	-752.658644031094	57.35212100673948	0.2865947599914023	-0.02376327566076059	0.8737730979697237	-2.56589129355473	0.0991694351355422	-0.4107285105578581	0.9320593023053871	-3.77281870593596	-3.77281870593604	0.5831706953083794	0.001384239349219507	-1.683777338449123	-0.4867706223509448	2.01818002178411e-09	-1.149222074587899e-09	-9.82427404710877e-09	1.518555286254302e-08	4.67689830280679e-09	-6.627019009316152e-09	-1.257887206996827e-08
1.02	-0.05081243252866473	0.08310262399253737	0.8169851781399838	0.7627807212296143	-0.2344371246313685	-0.1042053734359248	-0.4355272114427732	0.9597479426980562	0.9597479426980844	-0.007175519197950312	0.1745218254618218	0.4357676511381489	0.1075590184311478	0.003490273318529385	0.007258032327893018	0.0293578456522905	-0.09035266973508271	0.004737558872031655	-0.02042802879528537	0.03823189309876739	-0.1260395572334298	-0.1260395572334324	0.01099658253000394	-0.0001306697358217447	-0.04408441053762326	-0.008855714027393394	-0.1118129632430468	0.0233990295140152	0.01448519111282024	-0.4096189716081814	-0.07332494192648964	0.003685703257646398	0.1877947721476977	-14.82944024456653	-69.59443827911333	-9.376636297015375	0.5748686891668143	20.63244132912751	-752.8839427807941	57.38354767782431	0.2863106030128627	-0.01765195619888836	0.8755465822583421	-2.581686213933021	0.1040975732679148	-0.4180836122095657	0.9636243447506724	-3.788146524066324	-3.788146524066303	0.5723114602882391	-0.005785195152465989	-1.681185898016173	-0.4763572830086505	2.769042899056908e-09	-1.153439618419548e-09	-1.639875711952249e-08	2.282953482216865e-08	5.863189974996649e-09	-8.00866705838777e-09	-2.160297074101661e-08
1.03	-0.05076394415474992	0.08317444369888904	0.8173223412453092	0.7617489857723491	-0.2343847569940286	-0.1044303749946172	-0.4350952662003115	0.9582985446783739	0.9582985446783352	-0.007036492320760422	0.1745204990429383	0.4352429406298144	0.1074463685806498	0.00618325568810032	0.007119287303499536	0.03806709893366522	-0.1159815411548971	0.005733307797697972	-0.02457474266859058	0.04824850433987408	-0.1638358725915428	-0.163835872591544	0.01681084524433729	-0.0001334560261891964	-0.06084209574518424	-0.01366997255052635	-0.1120443341581694	0.02334020359718478	0.01447106573992811	-0.4088150138841934	-0.07351653243672855	0.003698309441509944	0.1880253449393667	-14.92585181295978	-69.64093114050642	-9.355995555050288	0.5449563631186307	20.54426593511618	-752.7691258775083	57.37453384899869	0.2571708683722043	-0.009977601619560272	0.8674613441136086	-2.55155509870455	0.09691868353218286	-0.4133298297424502	1.034381855137167	-3.774748633147802	-3.774748633147511	0.5862895150441311	0.002652695973511517	-1.670720418677249	-0.4833175167845177	3.518697299102997e-09	-1.163472649356723e-09	-2.298860926179835e-08	3.047950061035618e-08	7.061786079506852e-09	-9.38375346923157e-09	-3.065354816062871e-08
1.04	-0.05068925019424603	0.08324527758978532	0.8177463662120541	0.7604613481023579	-0.2343225108411656	-0.1046969166030142	-0.4345604143771581	0.9564713085868208	0.9564713085867012	-0.006839261648796766	0.1745191803695254	0.4345511211520842	0.1072857046689574	0.008731390635386686	0.007060869236817805	0.0467302179362734	-0.1415331122826716	0.006713261976007212	-0.02873603873594625	0.05881320923480277	-0.2016071716082163	-0.2016071716082164	0.022637341480199	-0.0001291206384569549	-0.0775062044147916	-0.01845852626641393	-0.1122757050732421	0.02328137768037601	0.01445694036679945	-0.4080110561602113	-0.07370812294696656	0.003710915625416694	0.1882559177310827	-15.04745852866146	-69.69812026632498	-9.331178354761731	0.5074685784972968	20.4734638629508	-752.829934715297	57.39671586080645	0.2573411185559143	-0.001586564656480845	0.8663197265050301	-2.566226155525095	0.1009386237964674	-0.4210000510197111	1.073243075514904	-3.783143255778378	-3.783143255778429	0.5747581645939236	-0.004360859532438983	-1.662470590425352	-0.4712163215595962	4.272383839044779e-09	-1.034318050482506e-09	-2.92943125702979e-08	3.718340085351361e-08	7.846065397652599e-09	-1.096828445220274e-08	-3.869394007822068e-08
1.05	-0.05058977678575172	0.08331590473879501	0.8182567484888336	0.7589186493699202	-0.2342505438696417	-0.1050051709941593	-0.4339173455510658	0.9542665596507925	0.9542665596507557	-0.006583747035057282	0.1745179388066662	0.4336931176412048	0.1070772978563165	0.01114019034025465	0.007075605613703274	0.05533409027381044	-0.1669856672907575	0.007677160136527279	-0.03291806864894101	0.06987659653407068	-0.2393307177293606	-0.2393307177293608	0.02846555817652454	-0.0001186615776055796	-0.09408004781166332	-0.02321787160399554	-0.1122478551278014	0.02310897044858527	0.0144433799286497	-0.4070550149485668	-0.07365929259772278	0.003686785870229014	0.1882201501903353	-15.19422905295619	-69.65799075217342	-9.303319100029016	0.467260662320739	20.38535500346172	-752.4965453377285	57.40147211851903	0.2291851110645241	0.004662227547874637	0.8555963875538174	-2.5316246476133	0.0936755617741391	-0.417282386611583	1.134292639274154	-3.765176622825014	-3.765176622824894	0.5868467965046291	0.003834948852286179	-1.65267336335086	-0.4775492276966768	5.0261963833583e-09	-9.008138381766843e-10	-3.559113622774195e-08	4.385773654838885e-08	8.617397316224461e-09	-1.255936057805289e-08	-4.670276369887452e-08
1.06	-0.05046690823728336	0.08338701094931145	0.8188528045690221	0.7571220541925808	-0.2341690258865926	-0.1053553412694659	-0.4331613616355464	0.9516849319870461	0.9516849319870793	-0.006269951579464033	0.1745168189663954	0.4326698092665448	0.1068214464727327	0.01341041862961137	0.007156681538172479	0.06386497861815799	-0.1923124012653635	0.008623464280810317	-0.03711921556881582	0.08139622711895951	-0.2769829171522075	-0.2769829171522077	0.03429350984695705	-0.0001047761184177392	-0.1105671771698459	-0.02794744045514396	-0.1122200051823033	0.0229365632168389	0.01442981949027035	-0.4060989737369272	-0.07361046224847147	0.003662656115124456	0.1881843826496372	-15.36613125517513	-69.62856831804834	-9.271401750212128	0.419629207404427	20.3135926680843	-752.3393214217003	57.4371533604884	0.229626835453635	0.01168134486031255	0.8517229278671257	-2.541061948829167	0.09741982054903386	-0.4248234523957742	1.164491732638955	-3.768873916118866	-3.7688739161189	0.5747051594153233	-0.003675579865055336	-1.645127782687452	-0.4652610242729822	5.699071622587119e-09	-9.423277735245984e-10	-4.24350295755428e-08	4.950701006727068e-08	9.627180723844524e-09	-1.405007847116782e-08	-5.489316099440888e-08
1.07	-0.05032202776482585	0.08345925973681526	0.8195337558845079	0.7550728917487752	-0.2340781400364864	-0.1057476398105663	-0.4322879363964172	0.9487272419747382	0.9487272419747211	-0.00589790934498044	0.1745158597821521	0.4314820971974547	0.1065184666844635	0.01554148244433435	0.007304198071559654	0.07230809001200665	-0.2174905208561972	0.009549617552333132	-0.04134309792958222	0.09336309142111453	-0.3145325890318684	-0.3145325890318681	0.04011464749732106	-8.686521585849184e-05	-0.1269574818897014	-0.03264261804500439	-0.1120092918187776	0.0226739832762127	0.01441510704809103	-0.4049376846689507	-0.07335528148158155	0.003601046334829615	0.1879573584054881	-15.56309555144404	-69.51245464766694	-9.23927719264408	0.3704730523468742	20.20474665559937	-751.8023364129848	57.4425287448866	0.2012180937037764	0.01795726842792111	0.8380229469842705	-2.501751430075747	0.08960713862900251	-0.4215531233493488	1.223924385849147	-3.744640665064491	-3.744640665064296	0.5857701803367813	0.004561173099442686	-1.633317988308503	-0.4707623562331377	6.367641686013561e-09	-9.931511848115422e-10	-4.930802237495839e-08	5.510175900232307e-08	1.064964772130758e-08	-1.553545816041386e-08	-6.309321646413902e-08
1.08	-0.05015656226637481	0.08353331778182346	0.8202986218542991	0.7527728352158861	-0.2339781138420312	-0.1061822536743546	-0.4312926143928964	0.9453947298753943	0.9453947298753286	-0.005467665311497885	0.174515087056503	0.4301310148468276	0.1061687118743182	0.01752742382793825	0.007518533039051978	0.08064790947925565	-0.2424912190816454	0.01045153315084879	-0.04558228010763434	0.1057755799970501	-0.3519473345585209	-0.3519473345585201	0.04593386964727838	-6.748440197979004e-05	-0.1432412334765128	-0.03730244483048421	-0.1117985784552797	0.02241140333563323	0.01440039460592292	-0.4037763956009883	-0.0731001007146812	0.003539436554620587	0.1877303341613115	-15.78504688464675	-69.40705411394961	-9.20324600448243	0.3140893191020344	20.11139329780868	-751.4417087248402	57.47846721315729	0.200602349229785	0.02504503168138436	0.8310645425471896	-2.505577675752137	0.09257228594757684	-0.4278834158529728	1.25361658739495	-3.741888645517132	-3.741888645517158	0.5743220593339872	-0.003381597601080681	-1.623817156078575	-0.4581908633968792	7.030272916389215e-09	-1.148213023133996e-09	-5.712566991695245e-08	5.990766162036328e-08	1.179351394172424e-08	-1.710518755113792e-08	-7.170988788937185e-08
